<mxfile host="app.diagrams.net" agent="Mozilla/5.0 (Windows NT 10.0; Win64; x64) AppleWebKit/537.36 (KHTML, like Gecko) Chrome/139.0.0.0 Safari/537.36" version="28.1.1">
  <diagram name="Page-1" id="8rd24OsB40FV2pDFpIs6">
    <mxGraphModel dx="1042" dy="527" grid="1" gridSize="10" guides="1" tooltips="1" connect="1" arrows="1" fold="1" page="1" pageScale="1" pageWidth="827" pageHeight="1169" math="0" shadow="0">
      <root>
        <mxCell id="0" />
        <mxCell id="1" parent="0" />
        <mxCell id="UeJsGEGH2Mw5XJwM0ifU-1" value="Insert Component" style="rounded=1;whiteSpace=wrap;html=1;" vertex="1" parent="1">
          <mxGeometry x="160" y="100" width="120" height="60" as="geometry" />
        </mxCell>
        <mxCell id="UeJsGEGH2Mw5XJwM0ifU-2" value="Arduino Identifies Component" style="rounded=1;whiteSpace=wrap;html=1;" vertex="1" parent="1">
          <mxGeometry x="340" y="220" width="120" height="60" as="geometry" />
        </mxCell>
        <mxCell id="UeJsGEGH2Mw5XJwM0ifU-3" value="Press test Button" style="rounded=1;whiteSpace=wrap;html=1;" vertex="1" parent="1">
          <mxGeometry x="160" y="220" width="120" height="60" as="geometry" />
        </mxCell>
        <mxCell id="UeJsGEGH2Mw5XJwM0ifU-4" value="&amp;nbsp;Display Results on LCD&amp;nbsp;" style="rounded=1;whiteSpace=wrap;html=1;" vertex="1" parent="1">
          <mxGeometry x="190" y="350" width="120" height="60" as="geometry" />
        </mxCell>
        <mxCell id="UeJsGEGH2Mw5XJwM0ifU-5" value="" style="endArrow=classic;html=1;rounded=0;" edge="1" parent="1" source="UeJsGEGH2Mw5XJwM0ifU-1" target="UeJsGEGH2Mw5XJwM0ifU-3">
          <mxGeometry width="50" height="50" relative="1" as="geometry">
            <mxPoint x="390" y="300" as="sourcePoint" />
            <mxPoint x="440" y="250" as="targetPoint" />
          </mxGeometry>
        </mxCell>
        <mxCell id="UeJsGEGH2Mw5XJwM0ifU-6" value="" style="endArrow=classic;html=1;rounded=0;" edge="1" parent="1" source="UeJsGEGH2Mw5XJwM0ifU-3" target="UeJsGEGH2Mw5XJwM0ifU-2">
          <mxGeometry width="50" height="50" relative="1" as="geometry">
            <mxPoint x="390" y="300" as="sourcePoint" />
            <mxPoint x="440" y="250" as="targetPoint" />
          </mxGeometry>
        </mxCell>
        <mxCell id="UeJsGEGH2Mw5XJwM0ifU-7" value="" style="endArrow=classic;html=1;rounded=0;" edge="1" parent="1" source="UeJsGEGH2Mw5XJwM0ifU-2" target="UeJsGEGH2Mw5XJwM0ifU-4">
          <mxGeometry width="50" height="50" relative="1" as="geometry">
            <mxPoint x="420" y="280" as="sourcePoint" />
            <mxPoint x="440" y="250" as="targetPoint" />
          </mxGeometry>
        </mxCell>
        <mxCell id="UeJsGEGH2Mw5XJwM0ifU-8" value="Component Type" style="rounded=0;whiteSpace=wrap;html=1;" vertex="1" parent="1">
          <mxGeometry x="360" y="330" width="80" height="40" as="geometry" />
        </mxCell>
        <mxCell id="UeJsGEGH2Mw5XJwM0ifU-9" value="Pinout&amp;nbsp;" style="rounded=0;whiteSpace=wrap;html=1;" vertex="1" parent="1">
          <mxGeometry x="360" y="390" width="80" height="30" as="geometry" />
        </mxCell>
        <mxCell id="UeJsGEGH2Mw5XJwM0ifU-10" value="" style="endArrow=classic;html=1;rounded=0;" edge="1" parent="1" source="UeJsGEGH2Mw5XJwM0ifU-4" target="UeJsGEGH2Mw5XJwM0ifU-8">
          <mxGeometry width="50" height="50" relative="1" as="geometry">
            <mxPoint x="330" y="390" as="sourcePoint" />
            <mxPoint x="390" y="360" as="targetPoint" />
          </mxGeometry>
        </mxCell>
        <mxCell id="UeJsGEGH2Mw5XJwM0ifU-11" value="" style="endArrow=classic;html=1;rounded=0;" edge="1" parent="1" source="UeJsGEGH2Mw5XJwM0ifU-4" target="UeJsGEGH2Mw5XJwM0ifU-9">
          <mxGeometry width="50" height="50" relative="1" as="geometry">
            <mxPoint x="390" y="400" as="sourcePoint" />
            <mxPoint x="440" y="350" as="targetPoint" />
          </mxGeometry>
        </mxCell>
      </root>
    </mxGraphModel>
  </diagram>
</mxfile>
